<svg width="28" height="16" viewBox="0 0 28 16" fill="none" xmlns="http://www.w3.org/2000/svg">
<path d="M27.5172 15.9997H0.48278C0.216179 15.9997 0 15.8112 0 15.5786V0.421064C0 0.188544 0.216179 0 0.48278 0H27.5172C27.7838 0 28 0.188544 28 0.421064V15.5786C27.9999 15.8112 27.7838 15.9997 27.5172 15.9997Z" fill="#F5F5F5"/>
<path d="M21.4481 0H6V15.9998H21.4481V0Z" fill="#F5F5F5"/>
<path d="M0.00113214 0C0.00113214 0 0 0.1885 0 0.421025V15.5789C0 15.8115 0.00110599 16 0.00110599 16H6V0H0.00113214Z" fill="#FF0000"/>
<path d="M28 0H22V16H28C28 16 28 15.8115 28 15.5789V0.421025C28 0.1885 28 0 28 0Z" fill="#FF0000"/>
<path d="M17.2805 9.82633L20 8.18255L19.376 7.85249C19.201 7.7599 19.1008 7.56 19.1267 7.35478L19.3297 5.74449L18.1784 6.09881C17.924 6.17713 17.6601 6.01161 17.6029 5.73806L17.4926 5.21086L16.4116 6.54919C16.2617 6.7347 15.9762 6.59302 16.0153 6.35248L16.477 3.51281L15.7701 3.71732C15.5637 3.77707 15.3456 3.67767 15.245 3.47788L14.5006 2.0022V2L14.5001 2.0011L14.4996 2V2.0022L13.7552 3.47788C13.6545 3.67762 13.4364 3.77702 13.23 3.71732L12.5231 3.51281L12.9848 6.35248C13.0238 6.59291 12.7383 6.73465 12.5884 6.54919L11.5074 5.21086L11.3971 5.73806C11.3399 6.01166 11.076 6.17707 10.8216 6.09881L9.67029 5.74449L9.87333 7.35478C9.89924 7.55995 9.79904 7.7599 9.62403 7.85249L9 8.18255L11.7195 9.82639C12.0012 9.99669 12.1247 10.3578 12.011 10.6793L11.7785 11.337L14.1088 11.1266C14.2377 11.1149 14.3475 11.2248 14.3437 11.3615L14.2703 14H14.7286L14.6552 11.3614C14.6514 11.2246 14.7611 11.1148 14.8901 11.1264L17.2214 11.337L16.9889 10.6793C16.8754 10.3578 16.9988 9.99658 17.2805 9.82633Z" fill="#FF0000"/>
</svg>
