<svg width="29" height="16" viewBox="0 0 29 16" fill="none" xmlns="http://www.w3.org/2000/svg">
<g clip-path="url(#clip0_1273_294967)">
<path d="M-1.39844 -0.0869141V16.0894H30.9541V-0.0869141H-1.39844Z" fill="#012169"/>
<path d="M-1.39844 -0.0869141L30.9541 16.0894L-1.39844 -0.0869141ZM30.9541 -0.0869141L-1.39844 16.0879L30.9541 -0.0869141Z" fill="black"/>
<path d="M30.2313 17.5365L14.7779 9.80905L-0.675412 17.5365L-2.12134 14.6402L11.1601 8.00016L-2.12134 1.36016L-0.675412 -1.53613L14.7779 6.19127L30.2313 -1.53613L31.6772 1.36016L18.3957 8.00016L31.6772 14.6402L30.2313 17.5365Z" fill="white"/>
<path d="M-1.39844 -0.0869141L30.9541 16.0894L-1.39844 -0.0869141ZM30.9541 -0.0869141L-1.39844 16.0879L30.9541 -0.0869141Z" fill="black"/>
<path d="M30.471 17.053L14.7777 9.20407L-0.915666 17.053L-1.88159 15.1226L12.3673 7.99962L-1.88159 0.876659L-0.915666 -1.05371L14.7777 6.79518L30.471 -1.05371L31.4369 0.876659L17.188 7.99962L31.4369 15.1226L30.471 17.053Z" fill="#C8102E"/>
<path d="M14.7779 -0.0869141V16.0894V-0.0869141ZM-1.39844 8.00049H30.9541H-1.39844Z" fill="black"/>
<path d="M17.4741 16.0879H12.0816V10.6968H-1.39844V5.3042H12.0816V-0.0869141H17.4741V5.3042H30.9541V10.6968H17.4741V16.0879Z" fill="white"/>
<path d="M14.7779 -0.0869141V16.0894V-0.0869141ZM-1.39844 8.00049H30.9541H-1.39844Z" fill="black"/>
<path d="M16.3956 16.0879H13.1601V9.61827H-1.39844V6.38271H13.1601V-0.0869141H16.3956V6.38271H30.9541V9.61827H16.3956V16.0879Z" fill="#C8102E"/>
</g>
<defs>
<clipPath id="clip0_1273_294967">
<rect width="28.4444" height="16" fill="white" transform="translate(0.555542)"/>
</clipPath>
</defs>
</svg>
