<svg width="29" height="16" viewBox="0 0 29 16" fill="none" xmlns="http://www.w3.org/2000/svg">
<g clip-path="url(#clip0_7024_50927)">
<path d="M28.4444 0H0V16H28.4444V0Z" fill="#B22234"/>
<path d="M0 1.84595H28.4444H0ZM28.4444 4.30817H0H28.4444ZM0 6.76891H28.4444H0ZM28.4444 9.23113H0H28.4444ZM0 11.6919H28.4444H0ZM28.4444 14.1541H0H28.4444Z" fill="black"/>
<path d="M28.4444 14.769H0V13.5379H28.4444V14.769ZM28.4444 12.3082H0V11.0771H28.4444V12.3082ZM28.4444 9.84602H0V8.61491H28.4444V9.84602ZM28.4444 7.38528H0V6.15417H28.4444V7.38528ZM28.4444 4.92305H0V3.69194H28.4444V4.92305ZM28.4444 2.46231H0V1.2312H28.4444V2.46231Z" fill="white"/>
<path d="M12.16 0H0V8.61482H12.16V0Z" fill="#3C3B6E"/>
<path d="M1.01506 0.368896L1.30543 1.25927L0.543945 0.709637H1.47876L0.723205 1.26075L1.01506 0.368896Z" fill="white"/>
<path d="M1.01467 2.0918L1.30504 2.98217L0.545044 2.43106H1.47986L0.72134 2.98217L1.01467 2.0918Z" fill="white"/>
<path d="M1.0149 3.8147L1.30527 4.70507L0.546753 4.15396H1.48157L0.723049 4.70507L1.0149 3.8147Z" fill="white"/>
<path d="M1.0149 5.53784L1.30527 6.4297L0.546753 5.87858H1.48157L0.723049 6.4297L1.0149 5.53784Z" fill="white"/>
<path d="M1.0149 7.26221L1.30527 8.15258L0.546753 7.60147H1.48157L0.723049 8.15258L1.0149 7.26221Z" fill="white"/>
<path d="M2.02514 1.2312L2.31551 2.12157L1.55847 1.57046H2.49329L1.73773 2.12157L2.02514 1.2312Z" fill="white"/>
<path d="M2.02552 2.9541L2.31589 3.84447L1.55737 3.29336H2.49219L1.73367 3.84447L2.02552 2.9541Z" fill="white"/>
<path d="M2.02552 4.677L2.31589 5.56737L1.55737 5.01626H2.49219L1.73367 5.56737L2.02552 4.677Z" fill="white"/>
<path d="M2.02552 6.3999L2.31589 7.29027L1.55737 6.73916H2.49219L1.73367 7.29027L2.02552 6.3999Z" fill="white"/>
<path d="M3.04017 0.368896L3.33054 1.25927L2.57202 0.708156H3.50684L2.74832 1.25927L3.04017 0.368896Z" fill="white"/>
<path d="M3.04017 2.0918L3.33054 2.98217L2.57202 2.43106H3.50684L2.74832 2.98217L3.04017 2.0918Z" fill="white"/>
<path d="M3.04017 3.8147L3.33054 4.70507L2.57202 4.15396H3.50684L2.74832 4.70507L3.04017 3.8147Z" fill="white"/>
<path d="M3.04017 5.53784L3.33054 6.42821L2.57202 5.8771H3.50684L2.7498 6.4297L3.04017 5.53784Z" fill="white"/>
<path d="M3.04017 7.26221L3.33054 8.15258L2.57202 7.60147H3.50684L2.74832 8.15258L3.04017 7.26221Z" fill="white"/>
<path d="M4.0547 1.2312L4.34507 2.12157L3.58655 1.57046H4.52136L3.76284 2.12157L4.0547 1.2312Z" fill="white"/>
<path d="M4.0547 2.9541L4.34507 3.84447L3.58655 3.29336H4.52136L3.76284 3.84447L4.0547 2.9541Z" fill="white"/>
<path d="M4.0547 4.677L4.34507 5.56737L3.58655 5.01626H4.52136L3.76284 5.56737L4.0547 4.677Z" fill="white"/>
<path d="M4.0547 6.3999L4.34507 7.29027L3.58655 6.73916H4.52136L3.76284 7.29027L4.0547 6.3999Z" fill="white"/>
<path d="M5.06532 0.368896L5.35569 1.25927L4.59717 0.708156H5.53198L4.77346 1.25927L5.06532 0.368896Z" fill="white"/>
<path d="M5.06532 2.0918L5.35569 2.98217L4.59717 2.43106H5.53198L4.77346 2.98217L5.06532 2.0918Z" fill="white"/>
<path d="M5.06532 3.8147L5.35569 4.70507L4.59717 4.15396H5.53198L4.77346 4.70507L5.06532 3.8147Z" fill="white"/>
<path d="M5.06532 5.53784L5.35569 6.42821L4.59717 5.8771H5.53198L4.77495 6.4297L5.06532 5.53784Z" fill="white"/>
<path d="M5.06532 7.26221L5.35569 8.15258L4.59717 7.60147H5.53198L4.77346 8.15258L5.06532 7.26221Z" fill="white"/>
<path d="M6.07984 1.2312L6.37021 2.12157L5.61169 1.57046H6.54799L5.78947 2.12157L6.07984 1.2312Z" fill="white"/>
<path d="M6.07984 2.9541L6.37021 3.84447L5.61169 3.29336H6.54799L5.78947 3.84447L6.07984 2.9541Z" fill="white"/>
<path d="M6.07984 4.677L6.37021 5.56737L5.61169 5.01626H6.54799L5.78947 5.56737L6.07984 4.677Z" fill="white"/>
<path d="M6.07984 6.3999L6.37021 7.29027L5.61169 6.73916H6.54799L5.78947 7.29027L6.07984 6.3999Z" fill="white"/>
<path d="M7.09437 0.368896L7.38474 1.25927L6.62622 0.708156H7.56104L6.80252 1.25927L7.09437 0.368896Z" fill="white"/>
<path d="M7.09437 2.0918L7.38474 2.98217L6.62622 2.43106H7.56104L6.80252 2.98217L7.09437 2.0918Z" fill="white"/>
<path d="M7.09437 3.8147L7.38474 4.70507L6.62622 4.15396H7.56104L6.80252 4.70507L7.09437 3.8147Z" fill="white"/>
<path d="M7.09437 5.53784L7.38474 6.42821L6.62622 5.8771H7.56104L6.80252 6.4297L7.09437 5.53784Z" fill="white"/>
<path d="M7.09437 7.26221L7.38474 8.15258L6.62622 7.60147H7.56104L6.80252 8.15258L7.09437 7.26221Z" fill="white"/>
<path d="M8.10534 1.2312L8.39571 2.12157L7.63867 1.57046H8.57349L7.81497 2.12157L8.10534 1.2312Z" fill="white"/>
<path d="M8.10499 2.9541L8.39536 3.84447L7.63684 3.29336H8.57165L7.81314 3.84447L8.10499 2.9541Z" fill="white"/>
<path d="M8.10499 4.677L8.39536 5.56737L7.63684 5.01626H8.57165L7.81314 5.56737L8.10499 4.677Z" fill="white"/>
<path d="M8.10499 6.3999L8.39536 7.29027L7.63684 6.73916H8.57165L7.81314 7.29027L8.10499 6.3999Z" fill="white"/>
<path d="M9.12025 0.368896L9.41062 1.25927L8.6521 0.709637H9.58691L8.82988 1.26075L9.12025 0.368896Z" fill="white"/>
<path d="M9.12025 2.0918L9.41062 2.98217L8.6521 2.43254H9.58691L8.82988 2.98365L9.12025 2.0918Z" fill="white"/>
<path d="M9.12025 3.8147L9.41062 4.70507L8.6521 4.15544H9.58691L8.82988 4.70655L9.12025 3.8147Z" fill="white"/>
<path d="M9.12025 5.53784L9.41062 6.42821L8.6521 5.87858H9.58691L8.82988 6.4297L9.12025 5.53784Z" fill="white"/>
<path d="M9.12025 7.26221L9.41062 8.15258L8.6521 7.60147H9.58691L8.82988 8.15258L9.12025 7.26221Z" fill="white"/>
<path d="M10.1348 1.2312L10.4251 2.12157L9.66663 1.57046H10.6014L9.84292 2.12157L10.1348 1.2312Z" fill="white"/>
<path d="M10.1348 2.9541L10.4251 3.84447L9.66663 3.29336H10.6014L9.84292 3.84447L10.1348 2.9541Z" fill="white"/>
<path d="M10.1348 4.677L10.4251 5.56737L9.66663 5.01626H10.6014L9.84292 5.56737L10.1348 4.677Z" fill="white"/>
<path d="M10.1348 6.3999L10.4251 7.29027L9.66663 6.73916H10.6014L9.84292 7.29027L10.1348 6.3999Z" fill="white"/>
<path d="M11.145 0.368896L11.4369 1.26075L10.6783 0.709637H11.6132L10.8546 1.26075L11.145 0.368896Z" fill="white"/>
<path d="M11.1454 2.0918L11.4358 2.98217L10.6772 2.43106H11.6121L10.8535 2.98217L11.1454 2.0918Z" fill="white"/>
<path d="M11.1454 3.8147L11.4358 4.70507L10.6772 4.15396H11.6121L10.8535 4.70507L11.1454 3.8147Z" fill="white"/>
<path d="M11.145 5.53784L11.4369 6.4297L10.6783 5.87858H11.6132L10.8546 6.4297L11.145 5.53784Z" fill="white"/>
<path d="M11.1454 7.26221L11.4358 8.15258L10.6772 7.60147H11.6121L10.8535 8.15258L11.1454 7.26221Z" fill="white"/>
</g>
<defs>
<clipPath id="clip0_7024_50927">
<rect width="28.4444" height="16" fill="white"/>
</clipPath>
</defs>
</svg>
