<?xml version="1.0" encoding="UTF-8"?><svg id="Layer_1" xmlns="http://www.w3.org/2000/svg" viewBox="0 0 1000 817.0464"><defs><style>.cls-1{fill:#0072bc;}.cls-2{fill:#ed1c24;}</style></defs><path class="cls-2" d="M428.4465,122.1011c-20.4044-19.6886-43.3864-35.2249-67.872-46.6801-93.7896-43.8876-209.5231-27.2419-286.7384,49.9734C-3.3793,202.6097-20.025,318.3433,23.8628,412.1326c11.4553,24.4856,26.9913,47.4678,46.6799,67.8722,1.0739,1.1455,2.1836,2.2553,3.2933,3.365l318.8488,318.8488c19.7704,19.7704,51.8246,19.7704,71.595,0h0c19.7704-19.7705,19.7704-51.8247,0-71.5951L145.4311,411.7747c-1.1097-1.1097-2.2194-2.2194-3.2575-3.4008-20.5836-21.8722-33.4348-48.3267-38.5899-75.9623-8.8777-47.6109,5.0834-98.6582,41.8473-135.4222,36.7641-36.7641,87.8115-50.7253,135.4222-41.8473,27.6358,5.1549,54.09,18.0063,75.9625,38.5896,1.1812,1.0383,2.2909,2.148,3.4006,3.2577l318.8488,318.8488c19.7704,19.7704,51.8246,19.7704,71.595,0h0c19.7704-19.7705,19.7704-51.8247,0-71.5951L431.8115,125.3944c-1.1097-1.1097-2.2194-2.2194-3.365-3.2933Z"/><path class="cls-1" d="M571.5535,694.9453c20.4044,19.6886,43.3864,35.2249,67.872,46.6801,93.7896,43.8876,209.5231,27.2419,286.7384-49.9734,77.2153-77.2153,93.861-192.9488,49.9732-286.7382-11.4553-24.4856-26.9913-47.4678-46.6799-67.8722-1.0739-1.1455-2.1836-2.2553-3.2933-3.365L607.3152,14.8278c-19.7704-19.7704-51.8246-19.7704-71.595,0h0c-19.7704,19.7705-19.7704,51.8247,0,71.5951l318.8488,318.8488c1.1097,1.1097,2.2194,2.2194,3.2575,3.4008,20.5836,21.8722,33.4348,48.3267,38.5899,75.9623,8.8777,47.6109-5.0834,98.6582-41.8473,135.4222-36.7641,36.7641-87.8115,50.7253-135.4222,41.8473-27.6358-5.1549-54.09-18.0063-75.9625-38.5896-1.1812-1.0383-2.2909-2.148-3.4006-3.2577l-318.8488-318.8488c-19.7704-19.7704-51.8246-19.7704-71.595,0h0c-19.7704,19.7705-19.7704,51.8247,0,71.5951l318.8488,318.8488c1.1097,1.1097,2.2194,2.2194,3.365,3.2933Z"/></svg>